<svg xmlns="http://www.w3.org/2000/svg" width="1200" height="320" viewBox="0 0 1200 320"><defs><radialGradient id="hof"><stop offset="0" stop-opacity=".7"/><stop offset=".5" stop-opacity=".3"/><stop offset="1" stop-opacity="0"/></radialGradient><style>text{font-family:-apple-system,BlinkMacSystemFont,'Segoe UI',Roboto,Helvetica,Arial,sans-serif}</style></defs><circle cx="724.7" cy="46.3" r="26.2" fill="url(#hof)" opacity="0.17"/><text x="724.7" y="54.6" font-size="23.8" text-anchor="middle" font-weight="600" opacity="0.72">«</text><circle cx="1005.0" cy="8.0" r="30.1" fill="url(#hof)" opacity="0.21"/><text x="1005.0" y="17.6" font-size="27.3" text-anchor="middle" font-weight="600" opacity="0.83">ï</text><circle cx="709.3" cy="169.0" r="16.7" fill="url(#hof)" opacity="0.07"/><text x="709.3" y="174.3" font-size="15.2" text-anchor="middle" font-weight="600" opacity="0.44">«</text><circle cx="1105.3" cy="150.8" r="17.3" fill="url(#hof)" opacity="0.08"/><text x="1105.3" y="156.3" font-size="15.7" text-anchor="middle" font-weight="600" opacity="0.48">j</text><circle cx="1114.7" cy="138.2" r="18.8" fill="url(#hof)" opacity="0.09"/><text x="1114.7" y="144.2" font-size="17.1" text-anchor="middle" font-weight="600" opacity="0.50">n</text><circle cx="1189.2" cy="213.4" r="14.6" fill="url(#hof)" opacity="0.04"/><text x="1189.2" y="218.0" font-size="13.3" text-anchor="middle" font-weight="600" opacity="0.36">σ</text><circle cx="-10.8" cy="213.4" r="14.6" fill="url(#hof)" opacity="0.04"/><text x="-10.8" y="218.0" font-size="13.3" text-anchor="middle" font-weight="600" opacity="0.36">σ</text><circle cx="195.7" cy="134.2" r="19.5" fill="url(#hof)" opacity="0.10"/><text x="195.7" y="140.4" font-size="17.7" text-anchor="middle" font-weight="600" opacity="0.51">λ</text><circle cx="1157.6" cy="215.4" r="14.5" fill="url(#hof)" opacity="0.04"/><text x="1157.6" y="220.0" font-size="13.2" text-anchor="middle" font-weight="600" opacity="0.35">Δ</text><circle cx="53.9" cy="113.7" r="22.0" fill="url(#hof)" opacity="0.11"/><text x="53.9" y="120.7" font-size="20.0" text-anchor="middle" font-weight="600" opacity="0.56">ü</text><circle cx="187.4" cy="112.3" r="21.6" fill="url(#hof)" opacity="0.11"/><text x="187.4" y="119.2" font-size="19.7" text-anchor="middle" font-weight="600" opacity="0.56">ï</text><circle cx="1150.4" cy="35.6" r="27.6" fill="url(#hof)" opacity="0.18"/><text x="1150.4" y="44.4" font-size="25.1" text-anchor="middle" font-weight="600" opacity="0.75">z</text><circle cx="744.2" cy="95.6" r="19.3" fill="url(#hof)" opacity="0.13"/><text x="744.2" y="101.7" font-size="17.6" text-anchor="middle" font-weight="600" opacity="0.60">ô</text><circle cx="72.7" cy="8.1" r="28.0" fill="url(#hof)" opacity="0.21"/><text x="72.7" y="17.0" font-size="25.4" text-anchor="middle" font-weight="600" opacity="0.83">ß</text><circle cx="1156.0" cy="136.0" r="20.1" fill="url(#hof)" opacity="0.09"/><text x="1156.0" y="142.4" font-size="18.3" text-anchor="middle" font-weight="600" opacity="0.51">Ω</text><circle cx="547.6" cy="25.7" r="26.7" fill="url(#hof)" opacity="0.19"/><text x="547.6" y="34.2" font-size="24.3" text-anchor="middle" font-weight="600" opacity="0.78">r</text><circle cx="384.0" cy="106.4" r="19.9" fill="url(#hof)" opacity="0.12"/><text x="384.0" y="112.7" font-size="18.1" text-anchor="middle" font-weight="600" opacity="0.58">ш</text><circle cx="122.2" cy="144.4" r="19.9" fill="url(#hof)" opacity="0.09"/><text x="122.2" y="150.8" font-size="18.1" text-anchor="middle" font-weight="600" opacity="0.49">t</text><circle cx="400.5" cy="37.0" r="27.8" fill="url(#hof)" opacity="0.18"/><text x="400.5" y="45.9" font-size="25.3" text-anchor="middle" font-weight="600" opacity="0.75">k</text><circle cx="541.3" cy="227.3" r="13.9" fill="url(#hof)" opacity="0.03"/><text x="541.3" y="231.7" font-size="12.6" text-anchor="middle" font-weight="600" opacity="0.33">y</text><circle cx="229.0" cy="86.5" r="19.5" fill="url(#hof)" opacity="0.14"/><text x="229.0" y="92.7" font-size="17.7" text-anchor="middle" font-weight="600" opacity="0.62">β</text><circle cx="770.3" cy="190.5" r="15.2" fill="url(#hof)" opacity="0.05"/><text x="770.3" y="195.3" font-size="13.9" text-anchor="middle" font-weight="600" opacity="0.40">ï</text><circle cx="350.3" cy="12.7" r="24.1" fill="url(#hof)" opacity="0.21"/><text x="350.3" y="20.4" font-size="21.9" text-anchor="middle" font-weight="600" opacity="0.81">g</text><circle cx="325.4" cy="184.5" r="16.3" fill="url(#hof)" opacity="0.06"/><text x="325.4" y="189.7" font-size="14.8" text-anchor="middle" font-weight="600" opacity="0.41">μ</text><circle cx="500.3" cy="41.6" r="26.6" fill="url(#hof)" opacity="0.18"/><text x="500.3" y="50.1" font-size="24.2" text-anchor="middle" font-weight="600" opacity="0.74">ü</text><circle cx="491.4" cy="57.3" r="21.6" fill="url(#hof)" opacity="0.16"/><text x="491.4" y="64.2" font-size="19.6" text-anchor="middle" font-weight="600" opacity="0.70">¡</text><circle cx="1131.9" cy="8.0" r="26.2" fill="url(#hof)" opacity="0.21"/><text x="1131.9" y="16.4" font-size="23.8" text-anchor="middle" font-weight="600" opacity="0.83">ô</text></svg>